<svg width="32" height="32" viewBox="0 0 32 32" fill="none" xmlns="http://www.w3.org/2000/svg">
<g clip-path="url(#clip0_30_1733)">
<path d="M30.4901 22.7725C30.004 22.0193 29.0302 21.8216 28.3084 22.3105L27.9283 22.5103L25.9598 20.9406C23.9977 19.3759 21.6233 18.5241 19.2106 18.4092C19.3259 17.782 19.6403 16.9417 20.4456 16.1362C20.6835 16.2018 21.5604 16.2235 21.8345 16.2235C23.44 16.2235 24.8614 15.9102 26.0722 15.2881C26.3025 15.1697 26.3932 14.8871 26.2748 14.6569C26.1564 14.4265 25.8737 14.3359 25.6437 14.4542C24.4663 15.0592 23.0482 15.3347 21.4213 15.2778C24.359 12.8243 27.6483 10.8783 29.1101 10.0584C28.8584 10.9131 28.3365 12.1784 27.29 13.2432C27.1086 13.4278 27.1112 13.7246 27.2958 13.9061C27.4803 14.0873 27.7771 14.085 27.9587 13.9003C29.5235 12.3081 30.0465 10.3318 30.1988 9.55602C30.2967 9.05702 29.87 8.61521 29.3508 8.6219C24.7552 8.70959 20.4167 10.6746 19.8407 15.2845C19.835 15.3298 19.8342 15.375 19.8368 15.4198C19.5523 15.6971 19.3164 15.9793 19.1213 16.2594V12.3596C21.1508 10.512 21.7913 8.07365 21.29 5.34084C20.8686 3.04421 19.7308 1.07515 19.2611 0.335273C19.2611 0.335211 19.2611 0.335211 19.2611 0.335211C18.9851 -0.0996018 18.3366 -0.124352 18.045 0.335211C17.5753 1.07515 16.4375 3.04415 16.0161 5.34084C15.516 8.06677 16.1508 10.5075 18.1837 12.3588V16.1801C18 15.9261 17.7822 15.671 17.5245 15.4198C17.5272 15.375 17.5264 15.3298 17.5207 15.2845C16.9455 10.6816 12.6044 8.70946 8.01059 8.62184C7.48659 8.61677 7.06515 9.05971 7.16259 9.5559C7.89346 13.2806 10.7107 16.2244 15.5082 16.2244C15.7839 16.2244 16.679 16.2014 16.9158 16.1361C17.7227 16.9423 18.0377 17.7798 18.1527 18.4062C16.2965 18.4837 14.4501 18.9978 12.7829 19.9606C12.5939 19.8935 12.4222 19.8365 12.2786 19.7936C10.8771 19.3738 9.31896 19.5563 8.00346 20.2939L4.63528 22.1825C4.21621 21.7559 3.55034 21.6476 3.00721 21.9614L1.91515 22.5918C1.27359 22.9623 1.05296 23.7857 1.4234 24.4273L5.4074 31.3276C5.77803 31.9695 6.59846 32.1914 7.2429 31.8194L8.3349 31.189C8.96621 30.8244 9.18865 30.0216 8.84271 29.3848L9.66478 28.6556C9.9034 28.444 10.2402 28.3731 10.5436 28.4708L14.3317 29.6884C14.8037 29.8713 15.3263 29.9469 15.8483 29.8935L23.4166 29.1169C23.9641 29.0608 24.4963 28.864 24.956 28.5478C30.5202 24.7179 30.1863 24.9555 30.235 24.9099C30.816 24.3662 30.9256 23.4473 30.4901 22.7725ZM27.9141 9.66277C26.2508 10.631 23.4957 12.347 20.9643 14.439C21.9468 10.949 25.594 9.94396 27.9141 9.66277ZM16.3988 14.4403C13.8703 12.3505 11.1183 10.6358 9.45403 9.66671C12.5799 10.0545 15.5443 11.3932 16.3988 14.4403ZM8.24971 10.0576C9.71078 10.8771 13.0017 12.8238 15.9405 15.2783C10.5461 15.4667 8.79596 11.9306 8.24971 10.0576ZM20.3678 5.51009C20.7696 7.70027 20.3499 9.54552 19.1213 11.0113V1.98159C19.5853 2.88534 20.116 4.1374 20.3678 5.51009ZM16.9383 5.51009C17.19 4.13827 17.7201 2.88702 18.1838 1.98352V11.0101C16.956 9.54452 16.5365 7.69971 16.9383 5.51009ZM25.3753 21.6736L27.022 22.9867L24.9616 24.0697C24.2858 24.425 23.57 24.6487 22.8273 24.7373L22.8384 24.5545C22.8398 24.5304 22.8395 24.5063 22.8372 24.4822C22.7346 23.3956 21.9393 22.5289 20.9031 22.3744C20.8989 22.3738 20.8946 22.3731 20.8904 22.3727L17.1284 21.9161C15.9367 21.7365 15.7745 21.2142 13.9292 20.4138C17.6331 18.6151 22.1206 19.0782 25.3753 21.6736ZM29.6163 24.204L24.4247 27.7755C24.0942 28.0028 23.7126 28.1441 23.321 28.1843L15.7527 28.961C15.2353 29.014 14.9147 28.8914 14.6322 28.8003L10.8304 27.5783C10.2128 27.38 9.52778 27.5239 9.04265 27.9543L8.36559 28.5549L6.84878 25.9277C6.71934 25.7035 6.43253 25.6268 6.20846 25.7561C5.98428 25.8856 5.90746 26.1723 6.0369 26.3965C6.29696 26.8469 7.48571 28.9058 8.01478 29.8222C8.12671 30.0162 8.06003 30.2651 7.86609 30.3771L6.77409 31.0075C6.57928 31.1199 6.33134 31.0531 6.21921 30.8588L2.23546 23.9587C2.12353 23.7648 2.19015 23.5158 2.38415 23.4038L3.47615 22.7734C3.6714 22.6607 3.91921 22.7283 4.03103 22.9221L4.9389 24.4946C5.0684 24.7188 5.35509 24.7955 5.57921 24.6661C5.8034 24.5367 5.88021 24.25 5.75078 24.0258L5.14284 22.9729L8.46215 21.1117C9.5574 20.4975 10.8505 20.3446 12.0098 20.6917C14.9199 21.5631 15.2697 22.5866 16.9962 22.8441C17.0004 22.8447 17.0047 22.8453 17.0089 22.8458L20.7707 23.3023C21.366 23.394 21.826 23.8982 21.9003 24.5364L21.884 24.8045L17.1021 25.1168C16.8437 25.1337 16.648 25.3568 16.6648 25.6151C16.6811 25.8631 16.8872 26.0533 17.1322 26.0533C17.1425 26.0533 17.1528 26.053 17.1632 26.0523C22.2242 25.5951 23.3447 25.9788 25.3978 24.8995C28.9767 23.0167 28.7752 23.1283 28.8227 23.0946C29.1122 22.8896 29.5006 22.968 29.7025 23.2808C29.8903 23.5718 29.852 23.963 29.6163 24.204Z" fill="#333333"/>
</g>
<defs>
<clipPath id="clip0_30_1733">
<rect width="32" height="32" fill="white"/>
</clipPath>
</defs>
</svg>
