<svg width="32" height="32" viewBox="0 0 32 32" fill="none" xmlns="http://www.w3.org/2000/svg">
<g clip-path="url(#clip0_30_1666)">
<path d="M30.3355 9.30004C30.2397 9.19982 30.107 9.14282 29.9681 9.14282H15.238C15.0991 9.14282 14.9664 9.19982 14.8707 9.30004C14.7747 9.40026 14.7241 9.5356 14.7305 9.67452L15.0974 17.5634C15.1104 17.8432 15.3519 18.064 15.6284 18.0471C15.9087 18.0342 16.1253 17.7961 16.1124 17.5158L15.7702 10.1587H29.4364L28.4677 30.984H17.0604C16.7799 30.984 16.5524 31.2112 16.5524 31.492C16.5524 31.7728 16.7799 31.9999 17.0604 31.9999H28.9524C29.2237 31.9999 29.4471 31.7866 29.4598 31.5157L30.4756 9.67452C30.482 9.5356 30.4315 9.40026 30.3355 9.30004Z" fill="#333333"/>
<path d="M20.8253 27.9365H2.5397C2.25919 27.9365 2.03174 28.1637 2.03174 28.4445C2.03174 30.4048 3.62675 32 5.58731 32H17.7777C19.7382 32 21.3333 30.4047 21.3333 28.4445C21.3332 28.1637 21.1058 27.9365 20.8253 27.9365ZM17.7777 30.9841H5.58731C4.36075 30.9841 3.33449 30.1101 3.0987 28.9524H20.2663C20.0304 30.1101 19.0041 30.9841 17.7777 30.9841Z" fill="#333333"/>
<path d="M20.8254 24.8889H2.53982C1.41958 24.8889 0.508057 25.8001 0.508057 26.9207C0.508057 28.0412 1.41951 28.9524 2.53982 28.9524H20.8254C21.9457 28.9524 22.8572 28.0412 22.8572 26.9207C22.8572 25.8001 21.9457 24.8889 20.8254 24.8889ZM20.8254 27.9365H2.53982C1.97955 27.9365 1.52397 27.4806 1.52397 26.9207C1.52397 26.3607 1.97963 25.9048 2.53982 25.9048H20.8254C21.3857 25.9048 21.8413 26.3607 21.8413 26.9207C21.8413 27.4806 21.3856 27.9365 20.8254 27.9365Z" fill="#333333"/>
<path d="M22.3492 15.2383C20.0317 15.2383 18.0093 16.8039 17.4308 19.0449C17.3606 19.3168 17.5241 19.5935 17.7956 19.6639C18.0679 19.7334 18.3442 19.5707 18.4145 19.2988C18.877 17.5061 20.495 16.2541 22.3492 16.2541C24.5898 16.2541 26.4126 18.077 26.4126 20.3176C26.4126 22.5582 24.5898 24.381 22.3492 24.381C21.8832 24.381 21.4268 24.3032 20.993 24.1494C20.7289 24.0567 20.4383 24.1941 20.3447 24.4585C20.251 24.7228 20.3895 25.013 20.6538 25.1068C21.1968 25.2992 21.7672 25.3969 22.3493 25.3969C25.1501 25.3969 27.4285 23.1182 27.4285 20.3176C27.4285 17.5169 25.1501 15.2383 22.3492 15.2383Z" fill="#333333"/>
<path d="M12.6984 16.762H10.6666C5.90524 16.762 2.03174 20.6355 2.03174 25.3968C2.03174 25.6775 2.25919 25.9048 2.5397 25.9048H20.8253C21.1058 25.9048 21.3333 25.6776 21.3333 25.3968C21.3332 20.6355 17.4597 16.762 12.6984 16.762ZM3.06447 24.8889C3.32682 20.9236 6.63611 17.7779 10.6666 17.7779H12.6984C16.7289 17.7779 20.0381 20.9236 20.3005 24.8889H3.06447Z" fill="#333333"/>
<path d="M7.61911 19.8096H6.60327V20.8254H7.61911V19.8096Z" fill="#333333"/>
<path d="M7.11106 21.8413H6.09521V22.8572H7.11106V21.8413Z" fill="#333333"/>
<path d="M13.2063 19.3015H12.1904V20.3174H13.2063V19.3015Z" fill="#333333"/>
<path d="M16.2539 21.8413H15.238V22.8572H16.2539V21.8413Z" fill="#333333"/>
<path d="M11.6826 22.3491H10.6667V23.365H11.6826V22.3491Z" fill="#333333"/>
<path d="M30.984 7.11133H13.7143C13.4338 7.11133 13.2063 7.33848 13.2063 7.61929V9.65104C13.2063 9.93177 13.4338 10.159 13.7143 10.159H30.984C31.2645 10.159 31.492 9.93184 31.492 9.65104V7.61929C31.492 7.33848 31.2645 7.11133 30.984 7.11133ZM30.4761 9.14301H14.2222V8.12717H30.4761V9.14301Z" fill="#333333"/>
<path d="M17.7665 7.51272L16.2427 0.401671C16.1839 0.127862 15.9143 -0.0477319 15.6395 0.011866C15.3652 0.0704223 15.1904 0.340734 15.2492 0.615063L16.773 7.72612C16.824 7.96421 17.0348 8.12738 17.2692 8.12738C17.3044 8.12738 17.3404 8.12381 17.3762 8.11592C17.6505 8.05736 17.8253 7.78698 17.7665 7.51272Z" fill="#333333"/>
</g>
<defs>
<clipPath id="clip0_30_1666">
<rect width="32" height="32" fill="white"/>
</clipPath>
</defs>
</svg>
